<svg width="720" height="100%" viewBox="0 5 720 1252" fill="none" xmlns="http://www.w3.org/2000/svg">
<g clip-path="url(#clip0_32_555)">
<path d="M35.8984 389.486L35.8984 1231.1H684.104V389.486H35.8984Z" fill="#1C8A4D"/>
<path d="M0.00195313 1219.68C0.00195313 1245.97 21.3027 1267.25 47.5743 1267.25H672.428C698.691 1267.25 720 1245.97 720 1219.68V389.486H680.101V1219.68C680.101 1223.94 676.656 1227.38 672.428 1227.38H47.5743C43.3375 1227.38 39.893 1223.94 39.893 1219.68L39.893 389.486H0.00195313L0.00195313 1219.68Z" fill="#6B3915"/>
<path d="M7.98349 1219.68L7.98349 389.486H0.00195313L0.00195313 1219.68C0.00195313 1245.97 21.3027 1267.25 47.5743 1267.25H672.428C698.691 1267.25 720 1245.97 720 1219.68V389.486H712.01V1219.68C712.01 1241.52 694.254 1259.29 672.428 1259.29H47.5743C25.7397 1259.29 7.98349 1241.52 7.98349 1219.68Z" fill="#A1481C"/>
<path d="M52.2695 1238.98C65.5243 1238.98 76.2695 1228.24 76.2695 1214.98C76.2695 1201.73 65.5243 1190.98 52.2695 1190.98C39.0147 1190.98 28.2695 1201.73 28.2695 1214.98C28.2695 1228.24 39.0147 1238.98 52.2695 1238.98Z" fill="black" stroke="url(#paint0_linear_32_555)" stroke-width="6"/>
<path d="M40.2695 645.981C53.5243 645.981 64.2695 635.236 64.2695 621.981C64.2695 608.727 53.5243 597.981 40.2695 597.981C27.0147 597.981 16.2695 608.727 16.2695 621.981C16.2695 635.236 27.0147 645.981 40.2695 645.981Z" fill="black" stroke="url(#paint1_linear_32_555)" stroke-width="6"/>
<path d="M664.269 1237.98C677.524 1237.98 688.269 1227.24 688.269 1213.98C688.269 1200.73 677.524 1189.98 664.269 1189.98C651.015 1189.98 640.27 1200.73 640.27 1213.98C640.27 1227.24 651.015 1237.98 664.269 1237.98Z" fill="black" stroke="url(#paint2_linear_32_555)" stroke-width="6"/>
<path d="M680.269 645.981C693.524 645.981 704.269 635.236 704.269 621.981C704.269 608.727 693.524 597.981 680.269 597.981C667.015 597.981 656.27 608.727 656.27 621.981C656.27 635.236 667.015 645.981 680.269 645.981Z" fill="black" stroke="url(#paint3_linear_32_555)" stroke-width="6"/>
<path opacity="0.3" d="M39.8906 1187.98L51.8906 1160.5L51.8906 659.582L39.8906 648.989L39.8906 1187.98Z" fill="black"/>
<path opacity="0.3" d="M680.27 1187.98L668.27 1160.5V659.582L680.27 648.989V1187.98Z" fill="black"/>
<path opacity="0.3" d="M76.625 1226.98L112.292 1214.98H610.165L643.364 1226.98H76.625Z" fill="black"/>
<path opacity="0.3" d="M39.2695 388.981H51.2695L51.2695 584.372L39.2695 594.981L39.2695 388.981Z" fill="black"/>
<path opacity="0.3" d="M668.27 389.485H680.27V595.146L668.27 584.554V389.485Z" fill="black"/>
<g clip-path="url(#clip1_32_555)">
<path d="M684.101 877.386L684.102 35.7715L35.8956 35.7714L35.8955 877.386L684.101 877.386Z" fill="#1C8A4D"/>
<path d="M719.998 47.1885C719.998 20.9003 698.697 -0.383791 672.426 -0.383793L47.5721 -0.383848C21.309 -0.38385 -0.000184966 20.9003 -0.000187264 47.1885L-0.000259842 877.385L39.8991 877.385L39.8992 47.1885C39.8992 42.935 43.3437 39.4905 47.5721 39.4905L672.426 39.4905C676.663 39.4905 680.107 42.9351 680.107 47.1885L680.107 877.385L719.998 877.385L719.998 47.1885Z" fill="#6B3915"/>
<path d="M712.017 47.1885L712.016 877.385L719.998 877.385L719.998 47.1885C719.998 20.9003 698.697 -0.383791 672.426 -0.383793L47.5721 -0.383848C21.309 -0.38385 -0.000184966 20.9003 -0.000187264 47.1885L-0.000259842 877.385L7.98961 877.385L7.98968 47.1885C7.98968 25.3539 25.7459 7.58105 47.5721 7.58105L672.426 7.58111C694.26 7.58111 712.017 25.354 712.017 47.1885Z" fill="#A1481C"/>
<path d="M663.269 77.9814C676.524 77.9814 687.269 67.2363 687.269 53.9814C687.269 40.7266 676.524 29.9814 663.269 29.9814C650.015 29.9814 639.27 40.7266 639.27 53.9814C639.27 67.2363 650.015 77.9814 663.269 77.9814Z" fill="black" stroke="url(#paint4_linear_32_555)" stroke-width="6"/>
<path d="M55.2695 77.9814C68.5243 77.9814 79.2695 67.2363 79.2695 53.9814C79.2695 40.7266 68.5243 29.9814 55.2695 29.9814C42.0147 29.9814 31.2695 40.7266 31.2695 53.9814C31.2695 67.2363 42.0147 77.9814 55.2695 77.9814Z" fill="black" stroke="url(#paint5_linear_32_555)" stroke-width="6"/>
<path opacity="0.3" d="M680.109 78.8887L668.109 106.371L668.109 607.29L680.109 617.883L680.109 78.8887Z" fill="black"/>
<path opacity="0.3" d="M39.2696 78.9814L51.2695 106.464L51.2695 607.389L39.2695 617.981L39.2696 78.9814Z" fill="black"/>
<path opacity="0.3" d="M643.373 39.499L607.706 51.499L109.833 51.499L76.6338 39.499L643.373 39.499Z" fill="black"/>
</g>
</g>
<defs>
<linearGradient id="paint0_linear_32_555" x1="73.2695" y1="1209.45" x2="31.2695" y2="1209.45" gradientUnits="userSpaceOnUse">
<stop stop-color="#111111"/>
<stop offset="0.49824" stop-color="#525252"/>
<stop offset="0.504857" stop-color="#525252"/>
<stop offset="0.995326" stop-color="#030303"/>
<stop offset="1" stop-color="#030303"/>
</linearGradient>
<linearGradient id="paint1_linear_32_555" x1="61.2695" y1="616.445" x2="19.2695" y2="616.445" gradientUnits="userSpaceOnUse">
<stop stop-color="#111111"/>
<stop offset="0.49824" stop-color="#525252"/>
<stop offset="0.504857" stop-color="#525252"/>
<stop offset="0.995326" stop-color="#030303"/>
<stop offset="1" stop-color="#030303"/>
</linearGradient>
<linearGradient id="paint2_linear_32_555" x1="685.27" y1="1208.45" x2="643.269" y2="1208.45" gradientUnits="userSpaceOnUse">
<stop stop-color="#111111"/>
<stop offset="0.49824" stop-color="#525252"/>
<stop offset="0.504857" stop-color="#525252"/>
<stop offset="0.995326" stop-color="#030303"/>
<stop offset="1" stop-color="#030303"/>
</linearGradient>
<linearGradient id="paint3_linear_32_555" x1="701.27" y1="616.445" x2="659.269" y2="616.445" gradientUnits="userSpaceOnUse">
<stop stop-color="#111111"/>
<stop offset="0.49824" stop-color="#525252"/>
<stop offset="0.504857" stop-color="#525252"/>
<stop offset="0.995326" stop-color="#030303"/>
<stop offset="1" stop-color="#030303"/>
</linearGradient>
<linearGradient id="paint4_linear_32_555" x1="684.27" y1="48.4451" x2="642.269" y2="48.4451" gradientUnits="userSpaceOnUse">
<stop stop-color="#111111"/>
<stop offset="0.49824" stop-color="#525252"/>
<stop offset="0.504857" stop-color="#525252"/>
<stop offset="0.995326" stop-color="#030303"/>
<stop offset="1" stop-color="#030303"/>
</linearGradient>
<linearGradient id="paint5_linear_32_555" x1="76.2695" y1="48.4451" x2="34.2695" y2="48.4451" gradientUnits="userSpaceOnUse">
<stop stop-color="#111111"/>
<stop offset="0.49824" stop-color="#525252"/>
<stop offset="0.504857" stop-color="#525252"/>
<stop offset="0.995326" stop-color="#030303"/>
<stop offset="1" stop-color="#030303"/>
</linearGradient>
<clipPath id="clip0_32_555">
<rect width="1267.25" height="720" fill="white" transform="matrix(0 -1 1 0 0 1267.25)"/>
</clipPath>
<clipPath id="clip1_32_555">
<rect width="389.486" height="719.756" fill="white" transform="translate(719.756) rotate(90)"/>
</clipPath>
</defs>
</svg>
